<?xml version="1.0" encoding="UTF-8" standalone="no"?>
<!-- Created with Inkscape (http://www.inkscape.org/) -->

<svg
   xmlns:dc="http://purl.org/dc/elements/1.1/"
   xmlns:cc="http://creativecommons.org/ns#"
   xmlns:rdf="http://www.w3.org/1999/02/22-rdf-syntax-ns#"
   xmlns:svg="http://www.w3.org/2000/svg"
   xmlns="http://www.w3.org/2000/svg"
   xmlns:sodipodi="http://sodipodi.sourceforge.net/DTD/sodipodi-0.dtd"
   xmlns:inkscape="http://www.inkscape.org/namespaces/inkscape"
   width="136mm"
   height="136mm"
   viewBox="0 0 136 136"
   version="1.1"
   id="svg6809"
   inkscape:version="0.92.2 (5c3e80d, 2017-08-06)"
   sodipodi:docname="fullscreen.svg">
  <defs
     id="defs6803" />
  <sodipodi:namedview
     id="base"
     pagecolor="#ffffff"
     bordercolor="#666666"
     borderopacity="1.0"
     inkscape:pageopacity="0.0"
     inkscape:pageshadow="2"
     inkscape:zoom="1.4"
     inkscape:cx="361.66197"
     inkscape:cy="289.47632"
     inkscape:document-units="mm"
     inkscape:current-layer="layer1"
     showgrid="false"
     inkscape:window-width="1863"
     inkscape:window-height="1025"
     inkscape:window-x="1737"
     inkscape:window-y="27"
     inkscape:window-maximized="1" />
  <metadata
     id="metadata6806">
    <rdf:RDF>
      <cc:Work
         rdf:about="">
        <dc:format>image/svg+xml</dc:format>
        <dc:type
           rdf:resource="http://purl.org/dc/dcmitype/StillImage" />
        <dc:title></dc:title>
      </cc:Work>
    </rdf:RDF>
  </metadata>
  <g
     inkscape:label="Ebene 1"
     inkscape:groupmode="layer"
     id="layer1"
     transform="translate(0,-161)">
    <path
       style="opacity:1;fill:#000000;fill-opacity:1;stroke:#000000;stroke-width:0.1;stroke-opacity:1"
       d="m 16.978306,161.26667 c -9.2581625,0 -16.7116405,7.45348 -16.7116405,16.71164 v 102.04338 c 0,9.25817 7.453478,16.71164 16.7116405,16.71164 H 119.02168 c 9.25817,0 16.71165,-7.45347 16.71165,-16.71164 V 177.97831 c 0,-9.25816 -7.45348,-16.71164 -16.71165,-16.71164 z m 101.942094,17.16381 -0.19999,42.04394 -14.85646,-14.85645 -15.011476,15.01148 -11.9972,-11.9972 15.01148,-15.01148 -14.9903,-14.9903 z m -71.397186,59.53383 11.9972,11.99668 -15.01149,15.01201 14.856461,14.85645 -42.043947,0.19999 0.199987,-42.04394 14.990299,14.9903 z"
       id="rect6822"
       inkscape:connector-curvature="0" />
  </g>
</svg>
